<svg width="240" height="358" viewBox="0 0 240 358" fill="none" xmlns="http://www.w3.org/2000/svg">
<path d="M229.39 103.969L130.61 5.18854C124.78 -0.64146 115.23 -0.64146 109.4 5.18854L10.61 103.969C4.78 109.799 0 121.329 0 129.579V219.579C0 227.829 6.75 234.579 15 234.579H107.27L66.64 193.949C64.55 194.669 62.32 195.079 60 195.079C48.7 195.079 39.5 185.879 39.5 174.579C39.5 163.279 48.7 154.079 60 154.079C71.3 154.079 80.5 163.279 80.5 174.579C80.5 176.909 80.09 179.139 79.37 181.229L111 212.859V96.9785C104.2 93.6385 99.5 86.6585 99.5 78.5885C99.5 67.2885 108.7 58.0885 120 58.0885C131.3 58.0885 140.5 67.2885 140.5 78.5885C140.5 86.6585 135.8 93.6385 129 96.9785V178.249L160.46 146.789C159.84 144.829 159.5 142.749 159.5 140.589C159.5 129.289 168.7 120.089 180 120.089C191.3 120.089 200.5 129.289 200.5 140.589C200.5 151.889 191.3 161.089 180 161.089C177.5 161.089 175.12 160.619 172.91 159.799L129 203.709V234.589H225C233.25 234.589 240 227.839 240 219.589V129.589C240 121.339 235.23 109.819 229.39 103.979V103.969Z" fill="#1D2126"/>
<path d="M4.08002 256.816H11.224V274.392L29.76 274.448V256.816H36.96V298.864H29.76V280.776L11.224 280.72V298.864H4.08002V256.816Z" fill="#1D2126"/>
<path d="M57.864 269.672C62.216 269.672 65.76 271.072 68.496 273.864C71.232 276.656 72.6 280.248 72.6 284.632C72.6 289.016 71.232 292.584 68.496 295.376C65.76 298.168 62.216 299.568 57.864 299.568C53.512 299.568 49.912 298.168 47.176 295.376C44.44 292.584 43.072 289 43.072 284.632C43.072 280.264 44.44 276.632 47.176 273.848C49.912 271.064 53.48 269.672 57.864 269.672ZM57.864 293.44C60.192 293.44 62.08 292.616 63.528 290.976C64.984 289.336 65.704 287.2 65.704 284.576C65.704 281.952 64.976 279.824 63.528 278.208C62.072 276.584 60.184 275.776 57.864 275.776C55.544 275.776 53.56 276.584 52.096 278.208C50.632 279.832 49.904 281.952 49.904 284.576C49.904 287.2 50.632 289.336 52.096 290.976C53.56 292.616 55.48 293.44 57.864 293.44Z" fill="#1D2126"/>
<path d="M121.192 280.776V298.864H114.584V281.824C114.584 279.856 114.08 278.32 113.064 277.208C112.048 276.096 110.672 275.552 108.928 275.552C107.072 275.552 105.592 276.16 104.488 277.368C103.384 278.576 102.832 280.272 102.832 282.448V298.872H96.136V281.832C96.136 279.864 95.64 278.328 94.656 277.216C93.672 276.104 92.304 275.56 90.56 275.56C88.704 275.56 87.216 276.168 86.088 277.376C84.96 278.584 84.4 280.28 84.4 282.456V298.88H77.592V270.472H83.92L84.144 273.2C85.792 270.784 88.488 269.568 92.216 269.568C94.392 269.568 96.272 270.016 97.872 270.92C99.464 271.816 100.672 273.136 101.504 274.856C102.2 273.208 103.344 271.912 104.952 270.976C106.56 270.04 108.464 269.568 110.672 269.568C113.896 269.568 116.456 270.56 118.352 272.552C120.248 274.536 121.192 277.288 121.192 280.792V280.776Z" fill="#1D2126"/>
<path d="M154.2 287.16H132.432C132.656 289.296 133.464 290.928 134.848 292.056C136.232 293.184 138 293.744 140.136 293.744C143.608 293.744 146.032 292.304 147.424 289.416L153.104 291.664C152.032 294.16 150.352 296.104 148.056 297.512C145.76 298.92 143.12 299.624 140.136 299.624C135.936 299.624 132.528 298.248 129.912 295.504C127.296 292.76 125.992 289.152 125.992 284.688C125.992 280.224 127.312 276.6 129.944 273.8C132.576 271.008 136.024 269.608 140.28 269.608C144.536 269.608 147.824 270.984 150.376 273.744C152.928 276.504 154.2 280.128 154.2 284.632V287.16ZM132.544 282.376H147.28C147.152 280.072 146.448 278.312 145.184 277.104C143.92 275.896 142.216 275.288 140.08 275.288C137.944 275.288 136.24 275.904 134.904 277.128C133.576 278.36 132.784 280.104 132.544 282.376Z" fill="#1D2126"/>
<path d="M26.832 346.672H10.832L7.37603 356.456H3.05176e-05L15.184 314.408H22.552L37.768 356.456H30.232L26.832 346.672ZM24.752 340.624L18.872 323.808L12.936 340.624H24.752Z" fill="#1D2126"/>
<path d="M51.12 351.736C52.528 351.736 53.64 351.456 54.456 350.904C55.272 350.352 55.68 349.528 55.68 348.44C55.68 346.92 54.656 345.912 52.616 345.4L48.704 344.36C43.32 342.896 40.632 340.128 40.632 336.064C40.632 333.456 41.576 331.328 43.472 329.68C45.368 328.032 47.912 327.208 51.12 327.208C53.992 327.208 56.392 327.864 58.336 329.176C60.28 330.488 61.464 332.288 61.896 334.576L55.792 336.008C55.664 334.976 55.184 334.16 54.368 333.56C53.552 332.96 52.544 332.664 51.344 332.664C50.144 332.664 49.144 332.968 48.392 333.576C47.64 334.184 47.264 334.976 47.264 335.952C47.264 336.736 47.544 337.392 48.104 337.92C48.664 338.448 49.536 338.864 50.72 339.184L54.576 340.144C57.144 340.84 59.104 341.888 60.456 343.296C61.808 344.704 62.48 346.44 62.48 348.496C62.48 351.16 61.48 353.28 59.472 354.856C57.464 356.432 54.704 357.216 51.176 357.216C47.912 357.216 45.296 356.496 43.328 355.064C41.36 353.632 40.2 351.696 39.84 349.256L46.056 348.16C46.168 349.288 46.672 350.16 47.56 350.792C48.448 351.424 49.64 351.736 51.12 351.736Z" fill="#1D2126"/>
<path d="M76.92 351.736C78.328 351.736 79.44 351.456 80.256 350.904C81.072 350.352 81.48 349.528 81.48 348.44C81.48 346.92 80.456 345.912 78.416 345.4L74.504 344.36C69.12 342.896 66.432 340.128 66.432 336.064C66.432 333.456 67.376 331.328 69.272 329.68C71.168 328.032 73.712 327.208 76.92 327.208C79.792 327.208 82.192 327.864 84.136 329.176C86.08 330.488 87.2641 332.288 87.6961 334.576L81.592 336.008C81.464 334.976 80.984 334.16 80.168 333.56C79.352 332.96 78.344 332.664 77.144 332.664C75.944 332.664 74.944 332.968 74.192 333.576C73.44 334.184 73.064 334.976 73.064 335.952C73.064 336.736 73.344 337.392 73.904 337.92C74.464 338.448 75.336 338.864 76.52 339.184L80.376 340.144C82.944 340.84 84.904 341.888 86.256 343.296C87.608 344.704 88.28 346.44 88.28 348.496C88.28 351.16 87.28 353.28 85.272 354.856C83.264 356.432 80.504 357.216 76.976 357.216C73.712 357.216 71.096 356.496 69.128 355.064C67.16 353.632 66 351.696 65.64 349.256L71.856 348.16C71.968 349.288 72.472 350.16 73.36 350.792C74.248 351.424 75.44 351.736 76.92 351.736Z" fill="#1D2126"/>
<path d="M92.6 318.216C92.6 317 93.016 315.976 93.848 315.152C94.68 314.328 95.696 313.912 96.896 313.912C98.096 313.912 99.088 314.336 99.92 315.176C100.752 316.016 101.168 317.032 101.168 318.216C101.168 319.4 100.752 320.416 99.92 321.264C99.088 322.12 98.08 322.544 96.896 322.544C95.712 322.544 94.704 322.12 93.856 321.264C93.008 320.408 92.592 319.392 92.592 318.216H92.6ZM100.304 328.056V356.464H93.496V328.056H100.304Z" fill="#1D2126"/>
<path d="M116.776 351.736C118.184 351.736 119.296 351.456 120.112 350.904C120.928 350.352 121.336 349.528 121.336 348.44C121.336 346.92 120.312 345.912 118.272 345.4L114.36 344.36C108.976 342.896 106.288 340.128 106.288 336.064C106.288 333.456 107.232 331.328 109.128 329.68C111.024 328.032 113.568 327.208 116.776 327.208C119.648 327.208 122.048 327.864 123.992 329.176C125.936 330.488 127.12 332.288 127.552 334.576L121.448 336.008C121.32 334.976 120.84 334.16 120.024 333.56C119.208 332.96 118.2 332.664 117 332.664C115.8 332.664 114.8 332.968 114.048 333.576C113.296 334.184 112.92 334.976 112.92 335.952C112.92 336.736 113.2 337.392 113.76 337.92C114.32 338.448 115.192 338.864 116.376 339.184L120.232 340.144C122.8 340.84 124.76 341.888 126.112 343.296C127.464 344.704 128.136 346.44 128.136 348.496C128.136 351.16 127.136 353.28 125.128 354.856C123.12 356.432 120.36 357.216 116.832 357.216C113.568 357.216 110.952 356.496 108.984 355.064C107.016 353.632 105.856 351.696 105.496 349.256L111.712 348.16C111.824 349.288 112.328 350.16 113.216 350.792C114.104 351.424 115.296 351.736 116.776 351.736Z" fill="#1D2126"/>
<path d="M148.464 356.464C146.512 356.896 144.864 357.112 143.512 357.112C140.64 357.112 138.408 356.328 136.808 354.752C135.208 353.176 134.4 350.832 134.4 347.72V333.824H130.04V328.056H134.4V319.2H141.152V328.056H147.704V333.824H141.152V346.512C141.152 349.584 142.344 351.128 144.72 351.128C145.488 351.128 146.448 350.928 147.592 350.536L148.464 356.472V356.464Z" fill="#1D2126"/>
<path d="M171.256 356.464C171.032 355.544 170.872 354.464 170.776 353.232C169.952 354.448 168.784 355.424 167.272 356.144C165.76 356.864 164.016 357.224 162.024 357.224C158.912 357.224 156.416 356.392 154.544 354.736C152.672 353.08 151.728 350.832 151.728 348C151.728 345.168 152.648 343.056 154.496 341.488C156.344 339.92 158.872 339.136 162.072 339.136H170.592V338.04C170.592 336.256 170.072 334.928 169.032 334.048C167.992 333.168 166.536 332.728 164.656 332.728C161.336 332.728 158.96 334.112 157.512 336.888L152.56 333.992C154.96 329.472 159.112 327.216 165.016 327.216C168.6 327.216 171.528 328.136 173.816 329.976C176.12 331.832 177.272 334.824 177.272 338.944V350.248C177.272 353.456 177.44 355.528 177.776 356.464H171.224H171.256ZM170.664 343.832H163.664C162.072 343.832 160.832 344.2 159.952 344.928C159.072 345.656 158.632 346.664 158.632 347.936C158.632 349.208 159.08 350.28 159.984 350.976C160.888 351.672 162.168 352.016 163.84 352.016C165.848 352.016 167.488 351.384 168.76 350.12C170.032 348.856 170.672 346.976 170.672 344.48V343.832H170.664Z" fill="#1D2126"/>
<path d="M210 338.944V356.464H203.224V340.408C203.224 337.704 202.584 335.864 201.312 334.864C200.096 333.872 198.672 333.376 197.04 333.376C195.072 333.376 193.432 334.008 192.12 335.264C190.808 336.52 190.152 338.312 190.152 340.632V356.464H183.344V328.056H189.728L189.952 331.12C190.76 329.92 191.928 328.968 193.464 328.264C195 327.56 196.68 327.208 198.496 327.208C202.168 327.208 205.008 328.224 207 330.256C208.992 332.288 209.992 335.184 209.992 338.936L210 338.944Z" fill="#1D2126"/>
<path d="M231.728 356.464C229.776 356.896 228.128 357.112 226.776 357.112C223.904 357.112 221.672 356.328 220.072 354.752C218.472 353.176 217.664 350.832 217.664 347.72V333.824H213.304V328.056H217.664V319.2H224.416V328.056H230.968V333.824H224.416V346.512C224.416 349.584 225.608 351.128 227.984 351.128C228.752 351.128 229.712 350.928 230.856 350.536L231.728 356.472V356.464Z" fill="#1D2126"/>
</svg>
