<svg width="400" height="400" viewBox="0 0 400 400" fill="none" xmlns="http://www.w3.org/2000/svg">
<path d="M309.39 186.252L210.61 86.4191C204.78 80.527 195.23 80.527 189.4 86.4191L90.61 186.252C84.78 192.144 80 203.797 80 212.135V303.094C80 311.431 86.75 318.253 95 318.253H187.27L146.64 277.19C144.55 277.918 142.32 278.332 140 278.332C128.7 278.332 119.5 269.034 119.5 257.614C119.5 246.194 128.7 236.896 140 236.896C151.3 236.896 160.5 246.194 160.5 257.614C160.5 259.969 160.09 262.223 159.37 264.335L191 296.302V179.187C184.2 175.812 179.5 168.757 179.5 160.601C179.5 149.181 188.7 139.883 200 139.883C211.3 139.883 220.5 149.181 220.5 160.601C220.5 168.757 215.8 175.812 209 179.187V261.323L240.46 229.528C239.84 227.547 239.5 225.445 239.5 223.262C239.5 211.841 248.7 202.543 260 202.543C271.3 202.543 280.5 211.841 280.5 223.262C280.5 234.682 271.3 243.98 260 243.98C257.5 243.98 255.12 243.505 252.91 242.677L209 287.054V318.263H305C313.25 318.263 320 311.442 320 303.104V212.145C320 203.807 315.23 192.164 309.39 186.262V186.252Z" fill="#1D2126"/>
</svg>
