<svg width="240" height="357" viewBox="0 0 240 357" fill="none" xmlns="http://www.w3.org/2000/svg">
<path d="M229.39 103.377L130.61 4.59662C124.78 -1.23338 115.23 -1.23338 109.4 4.59662L10.61 103.377C4.78 109.207 0 120.737 0 128.987V218.987C0 227.237 6.75 233.987 15 233.987H107.27L66.64 193.357C64.55 194.077 62.32 194.487 60 194.487C48.7 194.487 39.5 185.287 39.5 173.987C39.5 162.687 48.7 153.487 60 153.487C71.3 153.487 80.5 162.687 80.5 173.987C80.5 176.317 80.09 178.547 79.37 180.637L111 212.267V96.3866C104.2 93.0466 99.5 86.0666 99.5 77.9966C99.5 66.6966 108.7 57.4966 120 57.4966C131.3 57.4966 140.5 66.6966 140.5 77.9966C140.5 86.0666 135.8 93.0466 129 96.3866V177.657L160.46 146.197C159.84 144.237 159.5 142.157 159.5 139.997C159.5 128.697 168.7 119.497 180 119.497C191.3 119.497 200.5 128.697 200.5 139.997C200.5 151.297 191.3 160.497 180 160.497C177.5 160.497 175.12 160.027 172.91 159.207L129 203.117V233.997H225C233.25 233.997 240 227.247 240 218.997V128.997C240 120.747 235.23 109.227 229.39 103.387V103.377Z" fill="#F2F4F9"/>
<path d="M4.08002 256.224H11.224V273.8L29.76 273.856V256.224H36.96V298.272H29.76V280.184L11.224 280.128V298.272H4.08002V256.224Z" fill="#F2F4F9"/>
<path d="M57.864 269.08C62.216 269.08 65.76 270.48 68.496 273.272C71.232 276.064 72.6 279.656 72.6 284.04C72.6 288.424 71.232 291.992 68.496 294.784C65.76 297.576 62.216 298.976 57.864 298.976C53.512 298.976 49.912 297.576 47.176 294.784C44.44 291.992 43.072 288.408 43.072 284.04C43.072 279.672 44.44 276.04 47.176 273.256C49.912 270.472 53.48 269.08 57.864 269.08ZM57.864 292.848C60.192 292.848 62.08 292.024 63.528 290.384C64.984 288.744 65.704 286.608 65.704 283.984C65.704 281.36 64.976 279.232 63.528 277.616C62.072 275.992 60.184 275.184 57.864 275.184C55.544 275.184 53.56 275.992 52.096 277.616C50.632 279.24 49.904 281.36 49.904 283.984C49.904 286.608 50.632 288.744 52.096 290.384C53.56 292.024 55.48 292.848 57.864 292.848Z" fill="#F2F4F9"/>
<path d="M121.192 280.184V298.272H114.584V281.232C114.584 279.264 114.08 277.728 113.064 276.616C112.048 275.504 110.672 274.96 108.928 274.96C107.072 274.96 105.592 275.568 104.488 276.776C103.384 277.984 102.832 279.68 102.832 281.856V298.28H96.136V281.24C96.136 279.272 95.64 277.736 94.656 276.624C93.672 275.512 92.304 274.968 90.56 274.968C88.704 274.968 87.216 275.576 86.088 276.784C84.96 277.992 84.4 279.688 84.4 281.864V298.288H77.592V269.88H83.92L84.144 272.608C85.792 270.192 88.488 268.976 92.216 268.976C94.392 268.976 96.272 269.424 97.872 270.328C99.464 271.224 100.672 272.544 101.504 274.264C102.2 272.616 103.344 271.32 104.952 270.384C106.56 269.448 108.464 268.976 110.672 268.976C113.896 268.976 116.456 269.968 118.352 271.96C120.248 273.944 121.192 276.696 121.192 280.2V280.184Z" fill="#F2F4F9"/>
<path d="M154.2 286.568H132.432C132.656 288.704 133.464 290.336 134.848 291.464C136.232 292.592 138 293.152 140.136 293.152C143.608 293.152 146.032 291.712 147.424 288.824L153.104 291.072C152.032 293.568 150.352 295.512 148.056 296.92C145.76 298.328 143.12 299.032 140.136 299.032C135.936 299.032 132.528 297.656 129.912 294.912C127.296 292.168 125.992 288.56 125.992 284.096C125.992 279.632 127.312 276.008 129.944 273.208C132.576 270.416 136.024 269.016 140.28 269.016C144.536 269.016 147.824 270.392 150.376 273.152C152.928 275.912 154.2 279.536 154.2 284.04V286.568ZM132.544 281.784H147.28C147.152 279.48 146.448 277.72 145.184 276.512C143.92 275.304 142.216 274.696 140.08 274.696C137.944 274.696 136.24 275.312 134.904 276.536C133.576 277.768 132.784 279.512 132.544 281.784Z" fill="#F2F4F9"/>
<path d="M26.832 346.08H10.832L7.37603 355.864H3.05176e-05L15.184 313.816H22.552L37.768 355.864H30.232L26.832 346.08ZM24.752 340.032L18.872 323.216L12.936 340.032H24.752Z" fill="#F2F4F9"/>
<path d="M51.12 351.144C52.528 351.144 53.64 350.864 54.456 350.312C55.272 349.76 55.68 348.936 55.68 347.848C55.68 346.328 54.656 345.32 52.616 344.808L48.704 343.768C43.32 342.304 40.632 339.536 40.632 335.472C40.632 332.864 41.576 330.736 43.472 329.088C45.368 327.44 47.912 326.616 51.12 326.616C53.992 326.616 56.392 327.272 58.336 328.584C60.28 329.896 61.464 331.696 61.896 333.984L55.792 335.416C55.664 334.384 55.184 333.568 54.368 332.968C53.552 332.368 52.544 332.072 51.344 332.072C50.144 332.072 49.144 332.376 48.392 332.984C47.64 333.592 47.264 334.384 47.264 335.36C47.264 336.144 47.544 336.8 48.104 337.328C48.664 337.856 49.536 338.272 50.72 338.592L54.576 339.552C57.144 340.248 59.104 341.296 60.456 342.704C61.808 344.112 62.48 345.848 62.48 347.904C62.48 350.568 61.48 352.688 59.472 354.264C57.464 355.84 54.704 356.624 51.176 356.624C47.912 356.624 45.296 355.904 43.328 354.472C41.36 353.04 40.2 351.104 39.84 348.664L46.056 347.568C46.168 348.696 46.672 349.568 47.56 350.2C48.448 350.832 49.64 351.144 51.12 351.144Z" fill="#F2F4F9"/>
<path d="M76.92 351.144C78.328 351.144 79.44 350.864 80.256 350.312C81.072 349.76 81.48 348.936 81.48 347.848C81.48 346.328 80.456 345.32 78.416 344.808L74.504 343.768C69.12 342.304 66.432 339.536 66.432 335.472C66.432 332.864 67.376 330.736 69.272 329.088C71.168 327.44 73.712 326.616 76.92 326.616C79.792 326.616 82.192 327.272 84.136 328.584C86.08 329.896 87.2641 331.696 87.6961 333.984L81.592 335.416C81.464 334.384 80.984 333.568 80.168 332.968C79.352 332.368 78.344 332.072 77.144 332.072C75.944 332.072 74.944 332.376 74.192 332.984C73.44 333.592 73.064 334.384 73.064 335.36C73.064 336.144 73.344 336.8 73.904 337.328C74.464 337.856 75.336 338.272 76.52 338.592L80.376 339.552C82.944 340.248 84.904 341.296 86.256 342.704C87.608 344.112 88.28 345.848 88.28 347.904C88.28 350.568 87.28 352.688 85.272 354.264C83.264 355.84 80.504 356.624 76.976 356.624C73.712 356.624 71.096 355.904 69.128 354.472C67.16 353.04 66 351.104 65.64 348.664L71.856 347.568C71.968 348.696 72.472 349.568 73.36 350.2C74.248 350.832 75.44 351.144 76.92 351.144Z" fill="#F2F4F9"/>
<path d="M92.6 317.624C92.6 316.408 93.016 315.384 93.848 314.56C94.68 313.736 95.696 313.32 96.896 313.32C98.096 313.32 99.088 313.744 99.92 314.584C100.752 315.424 101.168 316.44 101.168 317.624C101.168 318.808 100.752 319.824 99.92 320.672C99.088 321.528 98.08 321.952 96.896 321.952C95.712 321.952 94.704 321.528 93.856 320.672C93.008 319.816 92.592 318.8 92.592 317.624H92.6ZM100.304 327.464V355.872H93.496V327.464H100.304Z" fill="#F2F4F9"/>
<path d="M116.776 351.144C118.184 351.144 119.296 350.864 120.112 350.312C120.928 349.76 121.336 348.936 121.336 347.848C121.336 346.328 120.312 345.32 118.272 344.808L114.36 343.768C108.976 342.304 106.288 339.536 106.288 335.472C106.288 332.864 107.232 330.736 109.128 329.088C111.024 327.44 113.568 326.616 116.776 326.616C119.648 326.616 122.048 327.272 123.992 328.584C125.936 329.896 127.12 331.696 127.552 333.984L121.448 335.416C121.32 334.384 120.84 333.568 120.024 332.968C119.208 332.368 118.2 332.072 117 332.072C115.8 332.072 114.8 332.376 114.048 332.984C113.296 333.592 112.92 334.384 112.92 335.36C112.92 336.144 113.2 336.8 113.76 337.328C114.32 337.856 115.192 338.272 116.376 338.592L120.232 339.552C122.8 340.248 124.76 341.296 126.112 342.704C127.464 344.112 128.136 345.848 128.136 347.904C128.136 350.568 127.136 352.688 125.128 354.264C123.12 355.84 120.36 356.624 116.832 356.624C113.568 356.624 110.952 355.904 108.984 354.472C107.016 353.04 105.856 351.104 105.496 348.664L111.712 347.568C111.824 348.696 112.328 349.568 113.216 350.2C114.104 350.832 115.296 351.144 116.776 351.144Z" fill="#F2F4F9"/>
<path d="M148.464 355.872C146.512 356.304 144.864 356.52 143.512 356.52C140.64 356.52 138.408 355.736 136.808 354.16C135.208 352.584 134.4 350.24 134.4 347.128V333.232H130.04V327.464H134.4V318.608H141.152V327.464H147.704V333.232H141.152V345.92C141.152 348.992 142.344 350.536 144.72 350.536C145.488 350.536 146.448 350.336 147.592 349.944L148.464 355.88V355.872Z" fill="#F2F4F9"/>
<path d="M171.256 355.872C171.032 354.952 170.872 353.872 170.776 352.64C169.952 353.856 168.784 354.832 167.272 355.552C165.76 356.272 164.016 356.632 162.024 356.632C158.912 356.632 156.416 355.8 154.544 354.144C152.672 352.488 151.728 350.24 151.728 347.408C151.728 344.576 152.648 342.464 154.496 340.896C156.344 339.328 158.872 338.544 162.072 338.544H170.592V337.448C170.592 335.664 170.072 334.336 169.032 333.456C167.992 332.576 166.536 332.136 164.656 332.136C161.336 332.136 158.96 333.52 157.512 336.296L152.56 333.4C154.96 328.88 159.112 326.624 165.016 326.624C168.6 326.624 171.528 327.544 173.816 329.384C176.12 331.24 177.272 334.232 177.272 338.352V349.656C177.272 352.864 177.44 354.936 177.776 355.872H171.224H171.256ZM170.664 343.24H163.664C162.072 343.24 160.832 343.608 159.952 344.336C159.072 345.064 158.632 346.072 158.632 347.344C158.632 348.616 159.08 349.688 159.984 350.384C160.888 351.08 162.168 351.424 163.84 351.424C165.848 351.424 167.488 350.792 168.76 349.528C170.032 348.264 170.672 346.384 170.672 343.888V343.24H170.664Z" fill="#F2F4F9"/>
<path d="M210 338.352V355.872H203.224V339.816C203.224 337.112 202.584 335.272 201.312 334.272C200.096 333.28 198.672 332.784 197.04 332.784C195.072 332.784 193.432 333.416 192.12 334.672C190.808 335.928 190.152 337.72 190.152 340.04V355.872H183.344V327.464H189.728L189.952 330.528C190.76 329.328 191.928 328.376 193.464 327.672C195 326.968 196.68 326.616 198.496 326.616C202.168 326.616 205.008 327.632 207 329.664C208.992 331.696 209.992 334.592 209.992 338.344L210 338.352Z" fill="#F2F4F9"/>
<path d="M231.728 355.872C229.776 356.304 228.128 356.52 226.776 356.52C223.904 356.52 221.672 355.736 220.072 354.16C218.472 352.584 217.664 350.24 217.664 347.128V333.232H213.304V327.464H217.664V318.608H224.416V327.464H230.968V333.232H224.416V345.92C224.416 348.992 225.608 350.536 227.984 350.536C228.752 350.536 229.712 350.336 230.856 349.944L231.728 355.88V355.872Z" fill="#F2F4F9"/>
</svg>
